<svg xmlns="http://www.w3.org/2000/svg" width="23.212" height="23.212" viewBox="0 0 23.212 23.212">
  <path id="calculator" d="M5.748,7.858H6.8V8.913h0a.527.527,0,0,0,.528.527h0a.527.527,0,0,0,.527-.528V7.858H8.913a.528.528,0,1,0,0-1.055H7.858V5.748a.528.528,0,0,0-1.055,0V6.8H5.748a.528.528,0,0,0,0,1.055Zm.837,10.023L5.466,19a.527.527,0,1,0,.746.746l1.119-1.119L8.45,19.746A.527.527,0,0,0,9.2,19L8.076,17.881,9.2,16.762l.008-.008a.527.527,0,0,0-.754-.738L7.331,17.135,6.212,16.017,6.2,16.009a.527.527,0,1,0-.738.754ZM19.464,6.8H16.3a.528.528,0,0,0,0,1.055h3.165a.528.528,0,0,0,0-1.055ZM16.3,16.826h3.165a.528.528,0,0,0,0-1.055H16.3a.528.528,0,0,0,0,1.055ZM21.047,1H4.165A3.169,3.169,0,0,0,1,4.165V21.047a3.169,3.169,0,0,0,3.165,3.165H21.047a3.169,3.169,0,0,0,3.165-3.165V4.165A3.169,3.169,0,0,0,21.047,1ZM12.078,23.157H4.165a2.113,2.113,0,0,1-2.11-2.11V13.134H12.078Zm0-11.078H2.055V4.165a2.113,2.113,0,0,1,2.11-2.11h7.913Zm11.078,8.968a2.113,2.113,0,0,1-2.11,2.11H13.134V13.134H23.157Zm0-8.968H13.134V2.055h7.913a2.113,2.113,0,0,1,2.11,2.11ZM16.3,19.992h3.165a.528.528,0,0,0,0-1.055H16.3a.528.528,0,1,0,0,1.055Z" transform="translate(-1 -1)" fill="#2c2c2c"/>
</svg>
